<?xml version="1.0" encoding="iso-8859-1"?>
<!-- Generator: Adobe Illustrator 19.0.0, SVG Export Plug-In . SVG Version: 6.00 Build 0)  -->
<svg version="1.1" id="Layer_1" xmlns="http://www.w3.org/2000/svg" xmlns:xlink="http://www.w3.org/1999/xlink" x="0px" y="0px"
	 viewBox="0 0 512.002 512.002" style="enable-background:new 0 0 512.002 512.002;" xml:space="preserve">
<path style="fill:#E0E0E3;" d="M482.932,347.023c-22.39-22.388-58.809-22.263-81.351,0.277l-237.42-234.948
	c23.226-23.222,23.349-60.746,0.285-83.81c-23.063-23.066-60.588-22.94-83.809,0.284c-11.585,11.584-17.413,26.726-17.49,41.856
	c0,0-19.605-2.512-36.425,14.511c-22.404,22.677-22.666,58.962-0.28,81.35c22.39,22.388,58.809,22.266,81.351-0.277l237.42,234.948
	c-23.226,23.224-23.349,60.746-0.285,83.811c23.064,23.066,60.589,22.937,83.809-0.284c11.548-11.544,17.36-26.624,17.478-41.703
	c0,0,21.769,1.02,36.435-14.665C504.423,405.089,505.317,369.411,482.932,347.023z"/>
<g>
	<path style="fill:#C7C5CC;" d="M482.932,347.023c-22.39-22.388-58.809-22.264-81.351,0.277l-237.42-234.948
		c23.226-23.222,23.351-60.746,0.286-83.81c-23.064-23.066-60.589-22.94-83.81,0.284c-4.148,4.146-7.544,8.753-10.215,13.648
		c22.516-12.297,51.213-9.013,70.158,9.934c13.98,13.98,19.441,33.272,16.402,51.471c-4.354,26.073,3.847,52.659,22.636,71.252
		l159.364,157.705c18.577,18.383,44.84,26.111,70.658,22.048c17.507-2.755,35.991,2.574,49.426,16.006
		c18.27,18.271,21.027,45.393,9.59,67.407c4.791-2.174,9.698-5.327,13.995-9.924C504.423,405.089,505.317,369.411,482.932,347.023z"
		/>
	<polygon style="fill:#C7C5CC;" points="274.256,330.977 328.98,275.406 307.508,254.209 253.347,310.376 	"/>
</g>
<path style="fill:#E0E0E3;" d="M166.518,482.957c22.388-22.39,22.263-58.809-0.277-81.351l234.948-237.42
	c23.222,23.226,60.746,23.349,83.81,0.285c23.066-23.064,22.938-60.589-0.284-83.809c-11.584-11.586-26.726-17.414-41.856-17.49
	c0,0,1.843-20.07-14.511-36.425c-22.541-22.541-58.962-22.666-81.35-0.28c-22.388,22.39-22.266,58.809,0.277,81.351l-234.948,237.42
	c-23.224-23.226-60.746-23.349-83.811-0.285S5.579,405.543,28.8,428.763c11.544,11.548,26.624,17.36,41.703,17.478
	c0,0-1.592,20.178,14.665,36.435C107.709,505.217,144.13,505.341,166.518,482.957z"/>
<g>
	<path style="fill:#C7C5CC;" d="M82.7,374.866l29.467-29.778c-23.235-23.07-60.638-23.147-83.653-0.135
		c-5.218,5.218-9.237,11.18-12.083,17.545C38.204,352.767,64.731,356.894,82.7,374.866z"/>
	<path style="fill:#C7C5CC;" d="M136.614,431.233c17.273,17.275,21.366,42.696,12.265,63.712
		c6.406-2.774,12.407-6.759,17.638-11.988c22.388-22.39,22.263-58.809-0.277-81.351L136.614,431.233z"/>
	<path style="fill:#C7C5CC;" d="M484.714,80.663c-11.584-11.586-26.724-17.414-41.856-17.49c0,0,1.843-20.07-14.511-36.425
		c-22.541-22.541-58.962-22.666-81.35-0.28c-5.23,5.23-9.215,11.232-11.989,17.639c21.015-9.099,46.437-5.007,63.712,12.268
		C415.074,72.729,413.231,92.8,413.231,92.8c15.13,0.075,30.272,5.903,41.856,17.49c17.97,17.967,22.098,44.494,12.367,66.264
		c6.365-2.845,12.327-6.863,17.544-12.081C508.065,141.407,507.938,103.884,484.714,80.663z"/>
</g>
<path style="fill:#E1E1E4;" d="M429.648,463.358l-1.692-1.531c-0.086,10.721-3.186,21.383-9.041,30.834
	c3.849-2.386,7.542-5.109,10.885-8.452c6.939-6.936,11.548-15.21,14.352-23.93C439.623,461.898,434.895,463.042,429.648,463.358z"/>
<g>
	<path style="fill:#1C2042;" d="M402.019,335.184l-79.586-78.757l79.249-80.083c11.88,9.077,26.305,14.017,41.466,14.069
		c0.08,0,0.158,0,0.238,0c18.225,0,35.331-7.072,48.186-19.929c26.637-26.638,26.51-70.108-0.285-96.904
		c-10.789-10.788-24.281-17.245-38.29-19.382c-1.994-13.179-7.824-24.279-18.078-34.532C408.806-6.448,366.44-6.57,340.476,19.389
		c-23.759,23.76-25.669,61.264-5.803,87.471l-7.225,7.275c-3.603,3.628-3.582,9.49,0.044,13.094
		c1.806,1.794,4.165,2.689,6.524,2.689c2.38,0,4.759-0.912,6.568-2.734l13.283-13.374c3.595-3.619,3.584-9.464-0.022-13.07
		c-18.894-18.894-19.018-49.515-0.278-68.256c18.744-18.74,49.362-18.618,68.257,0.277c6.65,6.651,10.538,13.268,12.301,21.178
		c-14.557,1.795-28.619,8.234-39.745,19.36c-3.617,3.616-3.617,9.477-0.001,13.092c3.617,3.616,9.478,3.617,13.094,0
		c19.418-19.418,51.145-19.289,70.717,0.284c19.574,19.576,19.703,51.3,0.284,70.719c-9.357,9.358-21.814,14.505-35.094,14.505
		c-0.058,0-0.117,0-0.175,0c-13.369-0.046-25.958-5.297-35.451-14.787c-1.736-1.737-4.09-2.712-6.546-2.712
		c-0.009,0-0.016,0-0.025,0c-2.464,0.006-4.823,0.995-6.557,2.747L159.686,394.56c-3.582,3.621-3.569,9.457,0.033,13.059
		c18.896,18.894,19.018,49.513,0.277,68.256c-18.74,18.743-49.36,18.619-68.255-0.277c-6.717-6.717-10.651-13.333-12.438-21.162
		c14.605-1.771,28.722-8.215,39.882-19.375c3.616-3.616,3.616-9.478,0-13.092c-3.617-3.616-9.478-3.616-13.094,0
		c-19.416,19.417-51.142,19.289-70.717-0.284c-9.49-9.49-14.743-22.08-14.787-35.449c-0.046-13.346,5.106-25.871,14.505-35.269
		c9.357-9.358,21.814-14.505,35.094-14.505c0.058,0,0.117,0,0.175,0c13.368,0.046,25.957,5.297,35.448,14.789
		c1.743,1.742,4.165,2.718,6.572,2.712c2.464-0.006,4.823-0.995,6.557-2.747l152.59-154.242c3.596-3.635,3.565-9.497-0.072-13.092
		c-3.634-3.597-9.497-3.565-13.092,0.07l-4.535,4.585l-76.956-76.155c20.493-26.897,18.567-65.465-5.852-89.885
		c-26.637-26.637-70.11-26.511-96.906,0.284C63.327,33.569,56.87,47.063,54.734,61.07c-13.18,1.994-24.28,7.825-34.533,18.08
		c-26.112,26.113-26.237,68.479-0.275,94.441c23.767,23.767,61.278,25.671,87.484,5.794l78.56,77.744l-74.085,74.886
		c-11.879-9.077-26.303-14.017-41.464-14.069c-0.08,0-0.159,0-0.238,0c-18.225,0-35.331,7.072-48.185,19.929
		C9.083,350.787,2.006,367.984,2.068,386.299c0.062,18.291,7.239,35.507,20.21,48.479c10.75,10.75,24.183,17.193,38.136,19.352
		c2.005,13.105,7.886,24.214,18.233,34.561c13.109,13.108,30.308,19.667,47.475,19.667c17.035-0.001,34.037-6.46,46.968-19.391
		c23.764-23.765,25.674-61.276,5.794-87.484l75.679-76.475l77.986,77.175c-9.078,11.879-14.017,26.303-14.069,41.465
		c-0.062,18.314,7.015,35.512,19.928,48.425c12.857,12.857,29.961,19.929,48.186,19.929c0.078,0,0.159,0,0.238,0
		c18.291-0.062,35.509-7.24,48.479-20.213c10.494-10.494,17.193-23.769,19.403-38.143c13.083-2.012,24.178-7.891,34.512-18.225
		c26.112-26.115,26.237-68.482,0.275-94.442C465.737,317.214,428.224,315.305,402.019,335.184z M114.334,160.187
		c-3.622-3.582-9.455-3.569-13.059,0.035c-18.892,18.893-49.511,19.019-68.256,0.277c-18.742-18.742-18.618-49.362,0.277-68.256
		c6.65-6.65,13.268-10.538,21.177-12.302c1.795,14.557,8.232,28.62,19.358,39.745c3.616,3.616,9.477,3.617,13.094,0
		c3.616-3.616,3.616-9.477,0-13.092C67.507,87.174,67.634,55.45,87.207,35.874c19.576-19.575,51.303-19.702,70.719-0.284
		c19.418,19.418,19.291,51.143-0.284,70.719c-1.742,1.742-2.717,4.107-2.711,6.571c0.006,2.464,0.995,4.824,2.747,6.557
		l83.13,82.264l-41.814,42.266L114.334,160.187z M476.134,422.329c-6.705,6.707-13.312,10.638-21.126,12.43
		c-1.815-15.069-8.531-28.995-19.41-39.874c-3.618-3.617-9.479-3.614-13.094,0c-3.616,3.616-3.616,9.478,0.001,13.092
		c9.398,9.399,14.549,21.924,14.503,35.269c-0.044,13.369-5.297,25.958-14.789,35.449c-9.49,9.492-22.08,14.743-35.448,14.789
		c-0.059,0-0.116,0-0.175,0c-13.279,0-25.738-5.148-35.094-14.505c-9.399-9.398-14.549-21.924-14.505-35.269
		c0.046-13.369,5.297-25.958,14.787-35.449c1.743-1.742,2.718-4.107,2.712-6.571c-0.006-2.464-0.995-4.824-2.747-6.557
		l-84.163-83.286l41.819-42.26l85.686,84.794c3.623,3.582,9.456,3.57,13.059-0.035c18.892-18.893,49.513-19.018,68.256-0.277
		C495.151,372.814,495.028,403.433,476.134,422.329z"/>
	<path style="fill:#1C2042;" d="M305.725,158.409c2.38,0,4.759-0.912,6.57-2.734l4.714-4.748c3.602-3.628,3.581-9.49-0.046-13.092
		c-3.629-3.602-9.489-3.584-13.094,0.046l-4.714,4.748c-3.602,3.628-3.581,9.49,0.046,13.092
		C301.009,157.514,303.366,158.409,305.725,158.409z"/>
</g>
<g>
</g>
<g>
</g>
<g>
</g>
<g>
</g>
<g>
</g>
<g>
</g>
<g>
</g>
<g>
</g>
<g>
</g>
<g>
</g>
<g>
</g>
<g>
</g>
<g>
</g>
<g>
</g>
<g>
</g>
</svg>
