<?xml version="1.0" encoding="iso-8859-1"?>
<!-- Generator: Adobe Illustrator 19.0.0, SVG Export Plug-In . SVG Version: 6.00 Build 0)  -->
<svg version="1.1" id="Layer_1" xmlns="http://www.w3.org/2000/svg" xmlns:xlink="http://www.w3.org/1999/xlink" x="0px" y="0px"
	 viewBox="0 0 512 512" style="enable-background:new 0 0 512 512;" xml:space="preserve">
<path style="fill:#F8F8F8;" d="M250.452,279.999L250.452,279.999c-9.834-8.011-11.312-22.477-3.302-32.31L435.325,16.687
	c8.011-9.834,22.477-11.312,32.31-3.302l0,0c9.834,8.011,11.312,22.477,3.302,32.31L282.763,276.697
	C274.752,286.532,260.286,288.009,250.452,279.999z"/>
<path style="fill:#E1E1E4;" d="M467.635,13.174L467.635,13.174c-6.751-5.499-15.671-6.324-23.202-3.246
	c7.517,8.266,8.512,20.891,1.241,29.816L257.499,270.745c-2.512,3.084-5.746,5.035-9.186,6.44c0.767,0.842,1.233,1.862,2.14,2.603
	c9.837,8.01,24.303,6.532,32.309-3.302L470.936,45.484C478.947,35.651,477.467,21.185,467.635,13.174z"/>
<path style="fill:#FFD92D;" d="M266.096,211.083l52.595,42.844c10.062,8.196,8.243,24.059-3.413,29.766l-31.07,15.21l-25.591,31.415
	l-31.299,173.529L35.908,347.923l166.204-63.634l25.591-31.415l10.151-33.201C241.546,207.593,256.302,203.105,266.096,211.083z"/>
<path style="fill:#FFE571;" d="M222.493,304.671l25.594-31.416l10.146-33.201c3.697-12.08,18.453-16.568,28.245-8.59l37.827,30.816
	c-0.996-3.12-2.786-6.05-5.616-8.353l-52.593-42.844c-9.792-7.978-24.549-3.49-28.245,8.59l-10.146,33.201l-25.594,31.416
	L35.906,347.923l23.54,19.174L222.493,304.671z"/>
<rect x="188.982" y="270.038" transform="matrix(-0.7753 -0.6316 0.6316 -0.7753 241.8256 666.6299)" style="fill:#956EC4;" width="101.028" height="40.519"/>
<rect x="197.438" y="246.279" transform="matrix(-0.7753 -0.6316 0.6316 -0.7753 205.0636 606.0315)" style="fill:#B77FD8;" width="25.796" height="40.519"/>
<g>
	<path style="fill:#1C2042;" d="M423.256,104.181c-3.763-3.067-9.301-2.5-12.367,1.263l-4.272,5.244
		c-3.066,3.763-2.5,9.301,1.263,12.367c1.631,1.329,3.595,1.975,5.546,1.975c2.551,0,5.083-1.105,6.82-3.238l4.272-5.244
		C427.586,112.783,427.02,107.247,423.256,104.181z"/>
	<path style="fill:#1C2042;" d="M484.235,28.513c-0.861-8.438-4.959-16.037-11.536-21.393c-13.574-11.058-33.618-9.009-44.675,4.564
		L271.802,203.367l-0.13-0.105c-6.771-5.517-15.8-7.291-24.154-4.749c-8.354,2.541-14.866,9.043-17.418,17.394l-6.5,21.26
		l-2.071-1.688c-1.807-1.472-4.125-2.172-6.445-1.929c-2.319,0.237-4.449,1.385-5.922,3.193l-25.591,31.416
		c-1.472,1.807-2.167,4.125-1.929,6.445c0.237,2.319,1.385,4.449,3.193,5.921l0.431,0.352l-54.973,21.047
		c-4.533,1.735-6.802,6.818-5.067,11.352c1.341,3.5,4.674,5.649,8.211,5.649c1.045,0,2.107-0.188,3.141-0.584l64.407-24.659
		l48.542,39.542l-27.732,153.76l-80.401-65.494l34.335-42.15c3.066-3.764,2.5-9.302-1.263-12.367
		c-3.763-3.066-9.302-2.501-12.367,1.262l-34.336,42.15l-13.968-11.378l18.381-22.564c3.066-3.764,2.5-9.302-1.263-12.367
		c-3.764-3.066-9.301-2.501-12.367,1.262l-18.381,22.565l-46.448-37.837l36.168-13.847c4.533-1.735,6.802-6.818,5.067-11.352
		c-1.736-4.533-6.819-6.8-11.352-5.065l-50.354,19.278c-2.93,1.122-5.04,3.72-5.537,6.816c-0.497,3.099,0.695,6.226,3.127,8.206
		l191.414,155.922c1.593,1.297,3.559,1.976,5.553,1.976c1.026,0,2.058-0.179,3.05-0.546c2.918-1.081,5.048-3.623,5.6-6.684
		l28.721-159.245c1.133,0.502,2.333,0.779,3.538,0.779c2.551,0,5.083-1.105,6.82-3.238l25.591-31.415
		c1.472-1.808,2.167-4.127,1.929-6.446c-0.193-1.889-1-3.647-2.267-5.033l19.394-9.494c8.058-3.945,13.478-11.62,14.499-20.534
		c1.021-8.913-2.521-17.615-9.476-23.282l-4.155-3.385l58.888-72.199c3.068-3.761,2.506-9.299-1.256-12.367
		c-3.761-3.069-9.3-2.508-12.367,1.256l-58.895,72.208l-21.983-17.908L441.654,22.788c2.392-2.936,5.783-4.764,9.55-5.15
		c3.766-0.382,7.459,0.721,10.395,3.112c2.935,2.392,4.764,5.783,5.149,9.55c0.386,3.767-0.72,7.458-3.112,10.393l-36.444,44.739
		c-3.066,3.763-2.5,9.301,1.263,12.367c3.762,3.065,9.301,2.5,12.367-1.263l36.444-44.739
		C482.622,45.22,485.098,36.952,484.235,28.513z M267.452,325.147l-2.847-2.319c-0.007-0.006-0.014-0.012-0.021-0.016
		l-61.832-50.367l14.487-17.785l5.287,4.307c0.015,0.013,0.032,0.025,0.047,0.038l56.513,46.037c0.015,0.012,0.03,0.025,0.046,0.036
		l2.807,2.287L267.452,325.147z M317.212,268.143c-0.341,2.972-2.077,5.431-4.763,6.746l-26.572,13.007l-47.559-38.742l8.594-28.109
		c0.851-2.785,2.937-4.867,5.722-5.715c2.787-0.846,5.678-0.279,7.936,1.561l53.528,43.605
		C316.417,262.383,317.552,265.172,317.212,268.143z"/>
</g>
<g>
</g>
<g>
</g>
<g>
</g>
<g>
</g>
<g>
</g>
<g>
</g>
<g>
</g>
<g>
</g>
<g>
</g>
<g>
</g>
<g>
</g>
<g>
</g>
<g>
</g>
<g>
</g>
<g>
</g>
</svg>
