<?xml version="1.0" encoding="iso-8859-1"?>
<!-- Generator: Adobe Illustrator 19.0.0, SVG Export Plug-In . SVG Version: 6.00 Build 0)  -->
<svg version="1.1" id="Layer_1" xmlns="http://www.w3.org/2000/svg" xmlns:xlink="http://www.w3.org/1999/xlink" x="0px" y="0px"
	 viewBox="0 0 512.004 512.004" style="enable-background:new 0 0 512.004 512.004;" xml:space="preserve">
<path style="fill:#57555C;" d="M206.959,258.389h-38.126l-33.882-95.899c-1.111-3.146,0.568-6.593,3.731-7.655l11.482-3.859
	l12.576-4.227c3.121-1.05,6.503,0.624,7.563,3.742L206.959,258.389z"/>
<path style="fill:#FFD92D;" d="M421.052,125.798l-40.923-40.923l67.69-67.69c11.301-11.301,29.622-11.301,40.923,0l0,0
	c11.301,11.301,11.301,29.623,0,40.923L421.052,125.798z"/>
<path style="fill:#FFA81E;" d="M488.744,17.186c-11.302-11.301-29.623-11.301-40.924,0l-22.328,22.327
	c11.302-11.299,29.622-11.299,40.924,0.001c11.299,11.301,11.299,29.623,0,40.923l22.328-22.328
	C500.041,46.809,500.041,28.487,488.744,17.186z"/>
<path style="fill:#57555C;" d="M421.26,165.631l-63.303-63.303c-5.446-5.446-5.446-14.277,0-19.724l0,0
	c5.446-5.446,14.277-5.446,19.724,0l63.303,63.303c5.446,5.446,5.446,14.277,0,19.724l0,0
	C435.536,171.077,426.706,171.077,421.26,165.631z"/>
<path style="fill:#787780;" d="M373.955,118.326c-5.448-5.446-5.448-14.277,0-19.723c5.445-5.447,14.275-5.447,19.724,0l-16-15.999
	c-5.448-5.446-14.279-5.446-19.724,0c-5.445,5.447-5.445,14.277,0,19.724L373.955,118.326z"/>
<path style="fill:#E1E1E4;" d="M189.488,271.138L189.488,271.138l168.597-168.597l59.417,59.417l-109.18,109.18
	C275.506,303.953,222.303,303.953,189.488,271.138z"/>
<path style="fill:#FF4F18;" d="M308.321,271.137l109.18-109.18l-2.326-2.326c-20.006,3.46-37.768,3.073-57.274,15.496
	c-6.247,3.978-10.503,7.894-13.695,11.865c-9.503,11.823-11.601,20.307-17.204,31.208c-0.86,1.672-10.563,20.071-29.305,32.87
	c-19.466,13.291-39.782,14.471-50.367,14.953c-19.294,0.878-35.065-3.461-45.353-7.372l-12.489,12.489
	C222.305,303.954,275.506,303.952,308.321,271.137z"/>
<path style="fill:#956EC4;" d="M431.418,457.008H69.638V291.56c0-18.278,14.816-33.094,33.094-33.094h295.593
	c18.278,0,33.094,14.816,33.094,33.094L431.418,457.008L431.418,457.008z"/>
<path style="fill:#6D2C92;" d="M398.322,258.466h-33.809c18.277,0,33.092,14.816,33.092,33.094v165.449h33.813V291.56
	C431.418,273.282,416.603,258.466,398.322,258.466z"/>
<path style="fill:#B77FD8;" d="M136.542,258.466h-33.809c-18.28,0-33.096,14.816-33.096,33.094v165.449h33.813V291.56
	C103.451,273.282,118.266,258.466,136.542,258.466z"/>
<path style="fill:#FFD92D;" d="M448.562,503.293H61.186c-25.626,0-46.399-20.773-46.399-46.399l0,0h480.172l0,0
	C494.96,482.52,474.186,503.293,448.562,503.293z"/>
<path style="fill:#FFE571;" d="M51.476,456.895H14.788c0,25.625,20.771,46.399,46.399,46.399h36.688
	C72.247,503.293,51.476,482.52,51.476,456.895z"/>
<path style="fill:#FFA81E;" d="M458.272,456.895h36.688c0,25.625-20.771,46.399-46.399,46.399h-36.688
	C437.501,503.293,458.272,482.52,458.272,456.895z"/>
<path style="fill:#FF4F18;" d="M398.327,258.466H102.734c-18.28,0-33.096,14.816-33.096,33.094v42.694
	c16.851,8.642,19.832,9.084,23.022,9.095c23.225,0.086,27.317-20.461,48.915-20.141c22.9,0.339,26.374,23.555,48.915,24.457
	c26.904,1.077,37.025-28.486,56.11-25.178c29.341,5.087,32.03,81.725,49.278,82.007c18.226,0.297,27.027-85.049,52.873-86.323
	c15.625-0.77,22.925,29.344,48.915,33.091c12.328,1.778,24.055-3.719,33.754-10.784v-48.919
	C431.418,273.282,416.603,258.466,398.327,258.466z"/>
<path style="fill:#FFD92D;" d="M164.309,103.369c0,12.366-10.024,22.39-22.39,22.39s-22.39-10.024-22.39-22.39
	s22.39-34.08,22.39-34.08S164.309,91.003,164.309,103.369z"/>
<g>
	<path style="fill:#FFFFFF;" d="M104.324,437.88c-4.562,0-8.26-3.698-8.26-8.26v-37.377c0-4.562,3.698-8.26,8.26-8.26
		c4.562,0,8.26,3.698,8.26,8.26v37.377C112.584,434.182,108.886,437.88,104.324,437.88z"/>
	<path style="fill:#FFFFFF;" d="M104.324,374.003c-4.562,0-8.26-3.698-8.26-8.26V361.2c0-4.562,3.698-8.26,8.26-8.26
		c4.562,0,8.26,3.698,8.26,8.26v4.543C112.584,370.305,108.886,374.003,104.324,374.003z"/>
</g>
<path style="fill:#1C2042;" d="M494.56,449.083H439.1v-13.956c0-4.563-3.698-8.26-8.26-8.26s-8.26,3.697-8.26,8.26v12.877H77.319
	V346.421c8.469,3.897,11.666,4.422,15.405,4.436c0.058,0,0.116,0,0.174,0c14.478,0,23.192-6.704,30.197-12.093
	c6.161-4.74,10.599-8.175,18.357-8.051c8.427,0.124,13.237,4.511,19.325,10.063c6.753,6.159,15.158,13.824,29.29,14.39
	c17.263,0.681,28.664-8.78,37.816-16.392c7.341-6.106,12.092-9.797,17.056-8.911c11.158,2.008,18.646,25.879,24.113,43.31
	c6.553,20.89,11.728,37.39,25.239,37.746c0.141,0.003,0.28,0.006,0.42,0.006c14.024-0.002,20.925-18.668,29.638-42.238
	c5.897-15.953,15.764-42.653,24.357-43.017c3.289-0.144,7.715,4.881,12.389,10.197c7.976,9.071,17.9,20.359,34.904,22.817
	c8.582,1.239,17.481-0.263,26.578-4.453v1.598c0,4.563,3.698,8.26,8.26,8.26s8.26-3.697,8.26-8.26v-15.735
	c0.006-0.121,0.022-0.24,0.022-0.361v-48.92c0-21.397-16.313-39.049-37.136-41.138c-1.394-0.143-2.808-0.216-4.239-0.216h-57.243
	l76.951-76.952c4.154,3.591,9.321,5.408,14.5,5.408c5.686,0,11.373-2.165,15.703-6.493c4.195-4.195,6.504-9.771,6.504-15.704
	c0-5.932-2.309-11.508-6.504-15.703l-14.596-14.596l61.938-61.938c14.502-14.503,14.502-38.102,0-52.605
	c-14.503-14.502-38.102-14.502-52.605,0l-62.442,62.442c-3.389-2.013-7.256-3.11-11.301-3.11c-5.932,0-11.509,2.311-15.703,6.503
	c-4.195,4.195-6.504,9.771-6.504,15.703c0,2.622,0.476,5.165,1.343,7.561L209.525,238.24l-33.1-97.433
	c-1.465-4.31-6.14-6.618-10.453-5.173l-9.557,3.213l-3.151-8.288c11.571-4.386,19.82-15.579,19.82-28.668
	c0-14.718-19.059-34.345-24.899-40.009c-3.204-3.107-8.297-3.108-11.5,0c-5.841,5.665-24.9,25.291-24.9,40.009
	c0,14.727,10.441,27.056,24.309,29.987l4.652,12.236l-10.229,3.438c-2.097,0.706-3.824,2.222-4.794,4.21
	c-0.969,1.99-1.1,4.285-0.363,6.37l32.268,91.33h-55.473c-22.803,0-41.354,18.552-41.354,41.354v158.268H14.388
	c-4.562,0-8.26,3.697-8.26,8.26c0,30.139,24.52,54.659,54.658,54.659h387.375c30.139,0,54.658-24.52,54.658-54.659
	C502.82,452.78,499.122,449.083,494.56,449.083z M128.303,101.891c0-3.535,5.486-12.607,14.13-22.185
	c8.645,9.578,14.13,18.65,14.13,22.185c0,7.791-6.338,14.13-14.13,14.13C134.643,116.021,128.303,109.682,128.303,101.891z
	 M311.657,249.461c13.947-12.563,21.336-26.415,22.279-28.248c1.727-3.36,3.112-6.442,4.452-9.421
	c3.094-6.882,5.764-12.826,11.845-20.39c2.909-3.618,6.734-6.913,11.694-10.073c11.735-7.474,22.727-9.784,34.874-11.53
	l-79.661,79.661L311.657,249.461L311.657,249.461z M397.268,153.055c-14.132,1.937-28.738,4.485-44.216,14.34
	c-6.506,4.143-11.64,8.61-15.696,13.656c-7.404,9.212-10.777,16.713-14.036,23.966c-1.252,2.785-2.547,5.667-4.076,8.641
	c-0.377,0.733-9.429,18.088-26.619,29.826c-2.781,1.901-5.73,3.619-8.764,5.11c-0.502,0.247-0.967,0.539-1.394,0.866h-60.798
	l136.003-136.003L397.268,153.055z M398.361,342.352c-10.985-1.587-18.043-9.615-24.869-17.379
	c-7.03-7.996-14.296-16.258-25.483-15.79c-19.566,0.829-29.517,27.749-39.14,53.785c-3.771,10.204-9.897,26.777-14.053,30.877
	c-3.194-3.862-7.408-17.296-10.014-25.609c-7.475-23.828-15.946-50.836-36.939-54.613c-1.552-0.28-3.052-0.409-4.509-0.409
	c-10.543,0-18.712,6.793-26.022,12.872c-8.055,6.699-15.662,13.052-26.602,12.589c-8.118-0.325-12.845-4.636-18.829-10.094
	c-6.914-6.305-15.518-14.152-30.201-14.37c-0.204-0.003-0.406-0.004-0.607-0.004c-13.142,0-21.402,6.356-28.059,11.477
	c-6.293,4.841-11.269,8.67-20.132,8.67c-0.037,0-0.076-0.001-0.115-0.001c-1.192-0.004-2.928-0.01-14.757-5.912v-37.626
	c0-13.598,10.957-24.673,24.485-24.834h295.232c13.694,0,24.834,11.14,24.834,24.834v44.609
	C413.815,341.081,405.679,343.41,398.361,342.352z M454.076,22.561c8.062-8.063,21.18-8.063,29.243,0
	c8.062,8.061,8.062,21.179,0,29.24l-61.85,61.85l-29.241-29.241L454.076,22.561z M364.631,88.397c2.219-2.218,5.826-2.217,8.042,0
	l63.303,63.303c2.217,2.217,2.217,5.825,0,8.042c-2.218,2.218-5.826,2.218-8.042,0l-63.303-63.305
	C362.414,94.221,362.414,90.613,364.631,88.397z M163.43,153.915l32.215,94.827h-20.755l-31.163-88.204L163.43,153.915z
	 M448.161,495.482H60.786c-18.194,0-33.453-12.806-37.238-29.879h461.85C481.615,482.676,466.355,495.482,448.161,495.482z"/>
<g>
</g>
<g>
</g>
<g>
</g>
<g>
</g>
<g>
</g>
<g>
</g>
<g>
</g>
<g>
</g>
<g>
</g>
<g>
</g>
<g>
</g>
<g>
</g>
<g>
</g>
<g>
</g>
<g>
</g>
</svg>
