<?xml version="1.0" encoding="iso-8859-1"?>
<!-- Generator: Adobe Illustrator 19.0.0, SVG Export Plug-In . SVG Version: 6.00 Build 0)  -->
<svg version="1.1" id="Layer_1" xmlns="http://www.w3.org/2000/svg" xmlns:xlink="http://www.w3.org/1999/xlink" x="0px" y="0px"
	 viewBox="0 0 511.999 511.999" style="enable-background:new 0 0 511.999 511.999;" xml:space="preserve">
<path style="fill:#77DD00;" d="M286.14,503.208h-62.576c-70.644,0-127.91-57.268-127.91-127.91V79.423h318.397v295.874
	C414.051,445.94,356.784,503.208,286.14,503.208z"/>
<path style="fill:#A6F900;" d="M129.879,375.298V79.423H95.654v295.874c0,70.644,57.268,127.91,127.91,127.91h34.221
	C187.146,503.208,129.879,445.94,129.879,375.298z"/>
<path style="fill:#00C800;" d="M95.654,79.423v30.901h25.777c131.46,0,238.028,106.568,238.028,238.028v57.847
	c0,36.346-15.23,69.075-39.569,92.362c54.241-14.826,94.159-64.322,94.159-123.263V79.423H95.654z"/>
<g>
	<rect x="24.105" y="132.397" style="fill:#E0E0E3;" width="35.321" height="70.63"/>
	<rect x="59.88" y="150.051" style="fill:#E0E0E3;" width="35.321" height="35.321"/>
	<rect x="149.535" y="150.051" style="fill:#E0E0E3;" width="35.321" height="35.321"/>
	<rect x="236.002" y="150.051" style="fill:#E0E0E3;" width="35.321" height="35.321"/>
	<rect x="324.861" y="150.051" style="fill:#E0E0E3;" width="35.321" height="35.321"/>
	<rect x="412.711" y="150.051" style="fill:#E0E0E3;" width="35.321" height="35.321"/>
	<rect x="447.891" y="134.331" style="fill:#E0E0E3;" width="35.309" height="66.749"/>
</g>
<path style="fill:#956EC4;" d="M413.792,79.423H95.914c-19.504,0-35.315-15.81-35.315-35.316l0,0
	C60.598,24.603,76.409,8.792,95.914,8.792h317.877c19.504,0,35.315,15.81,35.315,35.316l0,0
	C449.106,63.612,433.296,79.423,413.792,79.423z"/>
<path style="fill:#B77FD8;" d="M94.823,44.108c0-19.504,15.807-35.316,35.316-35.316H95.914c-19.503,0-35.315,15.81-35.315,35.316
	c0,19.504,15.813,35.316,35.315,35.316h34.225C110.63,79.423,94.823,63.612,94.823,44.108z"/>
<path style="fill:#6D2C92;" d="M413.792,8.792h-55.915c19.503,0,35.316,15.81,35.316,35.316c0,19.504-15.813,35.316-35.316,35.316
	h55.915c19.507,0,35.315-15.81,35.315-35.316S433.298,8.792,413.792,8.792z"/>
<g>
	<path style="fill:#E6001F;" d="M251.471,291.161c0,19.668-19.626,35.614-43.835,35.614c-24.211,0-43.835-15.945-43.835-35.614"/>
	<path style="fill:#E6001F;" d="M340.908,291.161c0,19.668-19.626,35.614-43.835,35.614c-24.211,0-43.835-15.945-43.835-35.614"/>
</g>
<rect x="183.027" y="397.26" style="fill:#FFD92D;" width="141.259" height="52.975"/>
<g>
	<path style="fill:#FFFFFF;" d="M146.333,425.231c-2.988,0-5.901-1.524-7.549-4.273c-9.77-16.3-14.935-34.956-14.935-53.949v-7.262
		c0-4.856,3.937-8.792,8.792-8.792c4.856,0,8.792,3.937,8.792,8.792v7.262c0,15.809,4.299,31.338,12.433,44.909
		c2.496,4.165,1.144,9.566-3.021,12.062C149.429,424.827,147.871,425.231,146.333,425.231z"/>
	<path style="fill:#FFFFFF;" d="M132.64,338.036c-4.856,0-8.792-3.936-8.792-8.792v-7.637c0-4.856,3.937-8.792,8.792-8.792
		c4.856,0,8.792,3.936,8.792,8.792v7.637C141.432,334.099,137.496,338.036,132.64,338.036z"/>
</g>
<g>
	<path style="fill:#1C2042;" d="M415.198,243.902c-4.857,0-8.792,3.937-8.792,8.792v11.84c0,4.856,3.935,8.792,8.792,8.792
		s8.792-3.937,8.792-8.792v-11.84C423.99,247.839,420.055,243.902,415.198,243.902z"/>
	<path style="fill:#1C2042;" d="M485.829,123.603h-35.316c-4.857,0-8.792,3.937-8.792,8.792v8.866H423.99V87.212
		c19.854-4.294,34.777-21.986,34.777-43.105C458.767,19.787,438.98,0,414.66,0H96.782c-24.32,0-44.107,19.787-44.107,44.107
		c0,21.318,15.203,39.149,35.335,43.229v53.926H70.279v-8.866c0-4.856-3.935-8.792-8.792-8.792H26.171
		c-4.857,0-8.792,3.937-8.792,8.792v70.631c0,4.856,3.935,8.792,8.792,8.792h35.316c4.857,0,8.792-3.937,8.792-8.792v-8.866H88.01
		v181.136c0,75.378,61.325,136.702,136.702,136.702h62.576c75.378,0,136.702-61.325,136.702-136.702V350.37
		c0-4.856-3.935-8.792-8.792-8.792s-8.792,3.936-8.792,8.792v24.926c0,65.683-53.437,119.118-119.118,119.118h-62.576
		c-65.681,0-119.118-53.436-119.118-119.118V185.369v-8.866h35.389v8.866c0,4.856,3.935,8.792,8.792,8.792h35.316
		c4.857,0,8.792-3.936,8.792-8.792v-8.866h35.389v8.866c0,4.856,3.935,8.792,8.792,8.792h35.315c4.857,0,8.792-3.936,8.792-8.792
		v-8.866h35.389v8.866c0,4.856,3.935,8.792,8.792,8.792h35.316c4.857,0,8.792-3.936,8.792-8.792v-8.866h35.947v8.866v27.034
		c0,4.856,3.935,8.792,8.792,8.792c4.857,0,8.792-3.936,8.792-8.792v-18.242h17.731v8.866c0,4.856,3.935,8.792,8.792,8.792h35.316
		c4.857,0,8.792-3.936,8.792-8.792v-70.631C494.621,127.54,490.686,123.603,485.829,123.603z M52.695,194.234H34.963v-53.047h17.732
		v8.866v35.315V194.234z M70.279,176.577v-17.731H88.01v17.731H70.279z M176.298,176.577h-17.732v-17.731h17.732V176.577z
		 M264.587,176.577h-17.731v-17.731h17.731V176.577z M352.876,176.577h-17.732v-17.731h17.732V176.577z M370.46,158.919v-8.865
		c0-4.856-3.935-8.792-8.792-8.792h-35.316c-4.857,0-8.792,3.936-8.792,8.792v8.865h-35.389v-8.865c0-4.856-3.935-8.792-8.792-8.792
		h-35.315c-4.857,0-8.792,3.936-8.792,8.792v8.865h-35.39v-8.865c0-4.856-3.935-8.792-8.792-8.792h-35.316
		c-4.857,0-8.792,3.936-8.792,8.792v8.865h-35.389v-8.865v-61.84H234.19c4.857,0,8.792-3.937,8.792-8.792
		c0-4.856-3.935-8.792-8.792-8.792H96.782c-14.625,0-26.523-11.899-26.523-26.524c0-14.624,11.897-26.523,26.523-26.523H414.66
		c14.625,0,26.523,11.899,26.523,26.523c0,14.625-11.897,26.524-26.523,26.524h-65.119c-4.857,0-8.792,3.936-8.792,8.792
		c0,4.856,3.935,8.792,8.792,8.792h56.865v61.839v8.865H370.46V158.919z M423.99,176.577v-17.731h17.731v17.731H423.99z
		 M477.037,194.234h-17.732v-8.866v-35.315v-8.866h17.732V194.234z"/>
	<path style="fill:#1C2042;" d="M352.307,300.107h9.801c4.857,0,8.792-3.937,8.792-8.792c0-4.856-3.935-8.792-8.792-8.792h-15.912
		c-0.522-0.096-1.057-0.154-1.607-0.154c-0.55,0-1.086,0.057-1.607,0.154h-62.769h-21.686c-0.522-0.096-1.057-0.154-1.607-0.154
		c-0.298,0-0.593,0.015-0.883,0.045c-0.291-0.029-0.585-0.045-0.883-0.045c-0.55,0-1.086,0.057-1.607,0.154h-14.166h-70.29
		c-0.522-0.096-1.057-0.154-1.607-0.154c-0.55,0-1.086,0.057-1.607,0.154h-16.542c-4.857,0-8.792,3.936-8.792,8.792
		c0,4.856,3.935,8.792,8.792,8.792h10.43c4.919,20.212,26.166,35.46,51.554,35.46c18.858,0,35.424-8.418,44.718-21.031
		c9.294,12.612,25.859,21.031,44.719,21.031C326.142,335.567,347.388,320.319,352.307,300.107z M211.318,317.983
		c-15.226,0-28.208-7.472-33.032-17.876h61.093h4.969C239.525,310.511,226.543,317.983,211.318,317.983z M300.754,317.983
		c-15.225,0-28.208-7.472-33.032-17.876h12.489h53.573C328.961,310.511,315.979,317.983,300.754,317.983z"/>
	<path style="fill:#1C2042;" d="M185.09,388.469c-4.857,0-8.792,3.936-8.792,8.792v52.973c0,4.856,3.935,8.792,8.792,8.792h141.261
		c4.857,0,8.792-3.937,8.792-8.792v-52.973c0-4.856-3.935-8.792-8.792-8.792H185.09z M264.894,406.053h17.455v35.389h-17.455
		V406.053z M247.31,441.442h-18.113v-35.389h18.113V441.442z M193.882,406.053h17.731v35.389h-17.731V406.053z M317.56,441.442
		h-17.626v-35.389h17.626V441.442z"/>
	<path style="fill:#1C2042;" d="M299.141,70.631h-9.759c-4.857,0-8.792,3.936-8.792,8.792c0,4.856,3.935,8.792,8.792,8.792h9.759
		c4.857,0,8.792-3.937,8.792-8.792C307.933,74.567,303.998,70.631,299.141,70.631z"/>
</g>
<g>
</g>
<g>
</g>
<g>
</g>
<g>
</g>
<g>
</g>
<g>
</g>
<g>
</g>
<g>
</g>
<g>
</g>
<g>
</g>
<g>
</g>
<g>
</g>
<g>
</g>
<g>
</g>
<g>
</g>
</svg>
