<?xml version="1.0" encoding="iso-8859-1"?>
<!-- Generator: Adobe Illustrator 19.0.0, SVG Export Plug-In . SVG Version: 6.00 Build 0)  -->
<svg version="1.1" id="Layer_1" xmlns="http://www.w3.org/2000/svg" x="0px" y="0px"
	 viewBox="0 0 512.001 512.001" style="enable-background:new 0 0 512.001 512.001;" xml:space="preserve">
<path style="fill:#E0E0E3;" d="M66.338,464.62V199.107c0-104.747,84.916-189.66,189.66-189.66h0.003
	c104.747,0,189.66,84.913,189.66,189.66v263.036v1.211c0,17.651-11.493,34.038-28.673,38.102
	c-24.652,5.833-46.635-12.401-47.181-35.937c-0.44-18.961-14.101-36.088-32.911-38.505c-22.46-2.889-41.714,13.89-42.905,35.484
	c-1.07,19.397-13.701,37.26-32.969,39.733c-22.457,2.881-41.704-13.896-42.895-35.488c-1.07-19.397-13.701-37.257-32.969-39.731
	c-22.531-2.891-41.831,14.004-42.906,35.697c-0.943,18.989-13.17,36.493-31.962,39.381C86.674,505.719,66.338,487.545,66.338,464.62
	z"/>
<g>
	<path style="fill:#C7C5CC;" d="M278.967,427.014c-22.46-2.889-41.714,13.891-42.905,35.484c-0.53,9.613-3.904,18.846-9.513,26.019
		c7.921,9.751,20.579,15.497,34.471,13.714c19.268-2.473,31.899-20.336,32.969-39.733c0.461-8.355,3.634-15.982,8.642-22.035
		C296.79,433.299,288.549,428.244,278.967,427.014z"/>
	<path style="fill:#C7C5CC;" d="M127.231,427.011C104.7,424.12,85.4,441.016,84.324,462.708c-0.475,9.572-3.821,18.765-9.426,25.9
		c8.116,9.926,21.153,15.67,35.391,13.482c18.792-2.889,31.019-20.393,31.962-39.381c0.412-8.316,3.511-15.921,8.435-21.983
		C144.978,433.425,136.95,428.259,127.231,427.011z"/>
	<path style="fill:#C7C5CC;" d="M256.001,9.447h-0.001c-9.848,0-19.519,0.752-28.962,2.199
		c90.999,13.944,160.697,92.562,160.697,187.461v263.036v1.213c0,9.486-3.323,18.603-9.061,25.643
		c8.758,10.428,23.021,16.077,38.315,12.459c17.179-4.064,28.673-20.449,28.673-38.102v-1.213V199.106
		C445.661,94.36,360.746,9.447,256.001,9.447z"/>
</g>
<g>
	<circle style="fill:#FFD92D;" cx="186.876" cy="217.49" r="44.674"/>
	<circle style="fill:#FFD92D;" cx="322.375" cy="217.49" r="44.675"/>
</g>
<g>
	<circle style="fill:#956EC4;" cx="339.4" cy="235.158" r="20.845"/>
	<circle style="fill:#956EC4;" cx="201.723" cy="235.838" r="20.845"/>
</g>
<g>
	<path style="fill:#FFFFFF;" d="M107.883,384.48c-5.216,0-9.445-4.229-9.445-9.445v-42.737c0-5.216,4.229-9.445,9.445-9.445
		s9.445,4.229,9.445,9.445v42.737C117.328,380.252,113.1,384.48,107.883,384.48z"/>
	<path style="fill:#FFFFFF;" d="M107.883,311.441c-5.216,0-9.445-4.229-9.445-9.445v-5.195c0-5.216,4.229-9.445,9.445-9.445
		s9.445,4.229,9.445,9.445v5.195C117.328,307.212,113.1,311.441,107.883,311.441z"/>
</g>
<g>
	<path style="fill:#1C2042;" d="M132.76,217.484c0,31.352,25.507,56.859,56.859,56.859s56.859-25.507,56.859-56.859
		s-25.507-56.859-56.859-56.859S132.76,186.131,132.76,217.484z M199.064,235.838c0-4.912,3.997-8.909,8.908-8.909
		c4.912,0,8.909,3.997,8.909,8.909c0,4.911-3.997,8.908-8.909,8.908C203.061,244.746,199.064,240.75,199.064,235.838z
		 M227.555,216.129c-5.028-4.997-11.951-8.09-19.583-8.09c-15.328,0-27.797,12.471-27.797,27.799c0,7.631,3.093,14.553,8.088,19.582
		c-20.31-0.718-36.615-17.454-36.615-37.936c0-20.937,17.033-37.97,37.97-37.97C210.101,179.514,226.838,195.818,227.555,216.129z"
		/>
	<path style="fill:#1C2042;" d="M265.521,217.484c0,31.352,25.507,56.859,56.859,56.859c31.354,0,56.861-25.507,56.861-56.859
		s-25.508-56.859-56.861-56.859C291.026,160.625,265.521,186.131,265.521,217.484z M331.824,236.741
		c0-5.411,4.402-9.812,9.814-9.812c5.411,0,9.812,4.401,9.812,9.812s-4.401,9.812-9.812,9.812
		C336.227,246.553,331.824,242.152,331.824,236.741z M360.256,214.924c-5.017-4.288-11.517-6.884-18.618-6.884
		c-15.827,0-28.703,12.876-28.703,28.701c0,7.1,2.597,13.601,6.884,18.617c-19.746-1.322-35.41-17.799-35.41-37.874
		c0-20.937,17.033-37.97,37.97-37.97C342.456,179.514,358.934,195.178,360.256,214.924z"/>
	<path style="fill:#1C2042;" d="M66.339,349.476c5.217,0,9.445-4.227,9.445-9.445V199.103c0-99.371,80.844-180.214,180.217-180.214
		c99.371,0,180.214,80.843,180.214,180.214c0,5.217,4.227,9.445,9.445,9.445c5.217,0,9.445-4.227,9.445-9.445
		C455.104,89.318,365.786,0,255.998,0C146.212,0,56.895,89.318,56.895,199.103v140.928
		C56.895,345.249,61.122,349.476,66.339,349.476z"/>
	<path style="fill:#1C2042;" d="M445.659,330.587c-5.217,0-9.445,4.227-9.445,9.445v123.32c0,13.819-9,25.978-21.401,28.911
		c-8.835,2.092-17.53,0.287-24.478-5.08c-6.847-5.286-10.888-13.263-11.088-21.885c-0.56-24.225-18.251-44.712-41.148-47.654
		c-13.319-1.714-26.291,2.029-36.52,10.539c-10.096,8.398-16.298,20.715-17.019,33.792c-1.011,18.321-13.211,29.407-24.74,30.885
		c-8.054,1.035-15.878-1.214-22.026-6.33c-6.072-5.053-9.803-12.457-10.238-20.31c-1.393-25.264-18.718-45.693-41.197-48.578
		c-13.366-1.714-26.373,2.06-36.615,10.631c-10.104,8.456-16.275,20.836-16.926,33.965c-0.666,13.435-9.111,28.232-23.96,30.514
		c-8.508,1.305-16.713-1.002-23.124-6.503c-6.323-5.426-9.948-13.309-9.948-21.632v-68.862c0-5.217-4.227-9.445-9.445-9.445
		s-9.445,4.227-9.445,9.445v68.865c0,13.839,6.028,26.949,16.538,35.968c10.504,9.013,24.459,12.96,38.293,10.837
		c22.287-3.426,38.719-23.268,39.958-48.248c0.392-7.887,4.103-15.327,10.183-20.415c6.157-5.153,14.003-7.418,22.088-6.38
		c11.53,1.48,23.731,12.563,24.741,30.881c0.72,13.075,6.922,25.391,17.015,33.789c8.608,7.163,19.157,10.951,30.228,10.951
		c2.079,0,4.178-0.133,6.285-0.404c22.478-2.886,39.802-23.318,41.196-48.58c0.433-7.854,4.166-15.257,10.239-20.311
		c6.149-5.115,13.974-7.362,22.031-6.325c13.72,1.763,24.325,14.383,24.673,29.358c0.334,14.344,7.049,27.611,18.426,36.396
		c11.379,8.789,26.092,11.888,40.374,8.513c20.826-4.926,35.942-24.815,35.942-47.293v-123.32
		C455.104,334.816,450.877,330.587,445.659,330.587z"/>
	<path style="fill:#1C2042;" d="M445.659,249.428c-5.217,0-9.445,4.227-9.445,9.445v13.973c0,5.217,4.227,9.445,9.445,9.445
		c5.217,0,9.445-4.227,9.445-9.445v-13.973C455.104,253.656,450.877,249.428,445.659,249.428z"/>
</g>
<g>
</g>
<g>
</g>
<g>
</g>
<g>
</g>
<g>
</g>
<g>
</g>
<g>
</g>
<g>
</g>
<g>
</g>
<g>
</g>
<g>
</g>
<g>
</g>
<g>
</g>
<g>
</g>
<g>
</g>
</svg>
