<?xml version="1.0" encoding="iso-8859-1"?>
<!-- Generator: Adobe Illustrator 19.0.0, SVG Export Plug-In . SVG Version: 6.00 Build 0)  -->
<svg version="1.1" id="Layer_1" xmlns="http://www.w3.org/2000/svg" xmlns:xlink="http://www.w3.org/1999/xlink" x="0px" y="0px"
	 viewBox="0 0 512 512" style="enable-background:new 0 0 512 512;" xml:space="preserve">
<path style="fill:#F8F8F8;" d="M256.003,9.165h-0.005c-107.997,0-195.551,87.551-195.551,195.553v23.035
	c0,49.974,24.511,94.122,62.062,121.42v93.174c0,33.408,27.083,60.49,60.49,60.49h146.01c33.407,0,60.49-27.083,60.49-60.49v-93.175
	c37.55-27.297,62.057-71.445,62.057-121.419v-23.035C451.554,96.716,364.004,9.165,256.003,9.165z"/>
<path style="fill:#E1E1E4;" d="M451.554,227.751v-23.035c0-108-87.55-195.551-195.551-195.551h-0.005
	c-107.997,0-195.551,87.551-195.551,195.553v23.035c0,49.974,24.511,94.122,62.062,121.42v93.174c0,33.407,27.083,60.49,60.49,60.49
	h146.01c33.407,0,60.49-27.083,60.49-60.49v-93.175C427.047,321.873,451.554,277.726,451.554,227.751z M240.346,387.935
	c-93.13,0-168.622-75.494-168.622-168.622c0-93.127,75.493-168.621,168.622-168.621s168.622,75.494,168.622,168.621
	C408.968,312.442,333.474,387.935,240.346,387.935z"/>
<g>
	<circle style="fill:#FF4F18;" cx="177.679" cy="206.909" r="53.278"/>
	<circle style="fill:#FF4F18;" cx="335.121" cy="206.909" r="53.278"/>
</g>
<g>
	<circle style="fill:#FFD92D;" cx="178.082" cy="206.909" r="22.033"/>
	<circle style="fill:#FFD92D;" cx="335.525" cy="206.909" r="22.356"/>
</g>
<path style="fill:#787780;" d="M337.117,439.566c5.061,0,9.165-4.102,9.165-9.165v-27.352h5.801c5.061,0,9.165-4.102,9.165-9.165
	s-4.103-9.165-9.165-9.165h-5.801v-29.746c0-5.063-4.103-9.165-9.165-9.165c-5.062,0-9.165,4.102-9.165,9.165v29.746h-21.38v-29.746
	c0-5.063-4.103-9.165-9.165-9.165s-9.165,4.102-9.165,9.165v29.746h-21.379v-29.746c0-5.063-4.103-9.165-9.165-9.165
	c-5.061,0-9.165,4.102-9.165,9.165v29.746h-21.38v-29.746c0-5.063-4.103-9.165-9.165-9.165c-5.062,0-9.165,4.102-9.165,9.165v29.746
	h-21.379v-29.746c0-5.063-4.103-9.165-9.165-9.165c-5.062,0-9.165,4.102-9.165,9.165v29.746h-12.585
	c-5.062,0-9.165,4.102-9.165,9.165s4.103,9.165,9.165,9.165h12.585v27.352c0,5.063,4.103,9.165,9.165,9.165
	c5.062,0,9.165-4.102,9.165-9.165v-27.352h21.379v27.352c0,5.063,4.103,9.165,9.165,9.165c5.062,0,9.165-4.102,9.165-9.165v-27.352
	h21.38v27.352c0,5.063,4.103,9.165,9.165,9.165c5.062,0,9.165-4.102,9.165-9.165v-27.352h21.379v27.352
	c0,5.063,4.103,9.165,9.165,9.165s9.165-4.102,9.165-9.165v-27.352h21.38v27.352C327.952,435.464,332.054,439.566,337.117,439.566z"
	/>
<g>
	<path style="fill:#1C2042;" d="M451.554,195.551c-5.062,0-9.165,4.102-9.165,9.165v23.035c0,44.858-21.787,87.478-58.281,114.006
		c-2.372,1.724-3.776,4.48-3.776,7.413v93.175c0,28.3-23.024,51.325-51.324,51.325h-146.01c-28.3,0-51.325-23.025-51.325-51.325
		v-93.174c0-2.933-1.403-5.688-3.776-7.413c-36.496-26.532-58.286-69.152-58.286-114.007v-23.035
		c0-102.774,83.613-186.386,186.391-186.386c61.557,0,119.095,30.369,153.916,81.235c2.858,4.177,8.564,5.245,12.739,2.385
		c4.177-2.859,5.245-8.563,2.387-12.739C386.806,33.35,323.613,0,255.998,0C143.117,0,51.282,91.836,51.282,204.716v23.035
		c0,49.133,23.115,95.884,62.062,126.001v88.592c0,38.409,31.246,69.655,69.655,69.655h146.009
		c38.407,0,69.654-31.247,69.654-69.655v-88.594c38.943-30.116,62.057-76.865,62.057-126v-23.035
		C460.719,199.655,456.616,195.551,451.554,195.551z"/>
	<path style="fill:#1C2042;" d="M426.743,129.842c1.306,2.974,2.553,6.029,3.704,9.079c1.386,3.67,4.872,5.932,8.577,5.932
		c1.074,0,2.169-0.191,3.235-0.593c4.735-1.787,7.125-7.074,5.339-11.811c-1.265-3.351-2.635-6.709-4.072-9.979
		c-2.036-4.633-7.446-6.739-12.077-4.706C426.814,119.8,424.707,125.207,426.743,129.842z"/>
	<path style="fill:#1C2042;" d="M337.117,439.566c5.061,0,9.165-4.102,9.165-9.165v-27.352h5.801c5.061,0,9.165-4.102,9.165-9.165
		s-4.103-9.165-9.165-9.165h-5.801v-29.746c0-5.063-4.103-9.165-9.165-9.165c-5.062,0-9.165,4.102-9.165,9.165v29.746h-21.38
		v-29.746c0-5.063-4.103-9.165-9.165-9.165s-9.165,4.102-9.165,9.165v29.746h-21.379v-29.746c0-5.063-4.103-9.165-9.165-9.165
		c-5.061,0-9.165,4.102-9.165,9.165v29.746h-21.38v-29.746c0-5.063-4.103-9.165-9.165-9.165c-5.062,0-9.165,4.102-9.165,9.165
		v29.746h-21.379v-29.746c0-5.063-4.103-9.165-9.165-9.165c-5.062,0-9.165,4.102-9.165,9.165v29.746h-12.585
		c-5.062,0-9.165,4.102-9.165,9.165s4.103,9.165,9.165,9.165h12.585v27.352c0,5.063,4.103,9.165,9.165,9.165
		c5.062,0,9.165-4.102,9.165-9.165v-27.352h21.379v27.352c0,5.063,4.103,9.165,9.165,9.165c5.062,0,9.165-4.102,9.165-9.165v-27.352
		h21.38v27.352c0,5.063,4.103,9.165,9.165,9.165c5.062,0,9.165-4.102,9.165-9.165v-27.352h21.379v27.352
		c0,5.063,4.103,9.165,9.165,9.165s9.165-4.102,9.165-9.165v-27.352h21.38v27.352C327.952,435.464,332.054,439.566,337.117,439.566z
		"/>
	<path style="fill:#1C2042;" d="M240.123,205.316c0-34.432-28.012-62.444-62.443-62.444s-62.443,28.012-62.443,62.444
		s28.012,62.444,62.443,62.444S240.123,239.747,240.123,205.316z M133.567,205.316c0-24.324,19.789-44.114,44.113-44.114
		s44.113,19.789,44.113,44.114s-19.789,44.114-44.113,44.114S133.567,229.64,133.567,205.316z"/>
	<path style="fill:#1C2042;" d="M397.564,205.316c0-34.432-28.012-62.444-62.444-62.444s-62.443,28.012-62.443,62.444
		s28.012,62.444,62.443,62.444S397.564,239.747,397.564,205.316z M335.12,249.429c-24.324,0-44.113-19.789-44.113-44.114
		s19.789-44.114,44.113-44.114c24.324,0,44.114,19.789,44.114,44.114S359.445,249.429,335.12,249.429z"/>
</g>
<g>
</g>
<g>
</g>
<g>
</g>
<g>
</g>
<g>
</g>
<g>
</g>
<g>
</g>
<g>
</g>
<g>
</g>
<g>
</g>
<g>
</g>
<g>
</g>
<g>
</g>
<g>
</g>
<g>
</g>
</svg>
