<?xml version="1.0" encoding="iso-8859-1"?>
<!-- Generator: Adobe Illustrator 19.0.0, SVG Export Plug-In . SVG Version: 6.00 Build 0)  -->
<svg version="1.1" id="Layer_1" xmlns="http://www.w3.org/2000/svg" xmlns:xlink="http://www.w3.org/1999/xlink" x="0px" y="0px"
	 viewBox="0 0 512 512" style="enable-background:new 0 0 512 512;" xml:space="preserve">
<polyline style="fill:#E1E1E4;" points="90.209,331.432 90.209,471.013 128.368,434.893 177.786,471.013 235.261,434.893 
	294.618,471.013 352.707,434.893 405.595,471.013 453.516,434.893 501.436,471.013 501.436,183.915 "/>
<path style="fill:#F8F8F8;" d="M416.919,330.801H91.854c-46.504,0-84.203-64.878-84.203-144.908S45.349,40.985,91.854,40.985
	h325.065"/>
<path style="fill:#FFFFFF;" d="M57.271,185.892c0-80.029,37.703-144.908,84.203-144.908H91.854
	c-46.501,0-84.203,64.878-84.203,144.908s37.703,144.91,84.203,144.91h49.621C94.974,330.802,57.271,265.924,57.271,185.892z"/>
<ellipse style="fill:#E1E1E4;" cx="418.534" cy="185.895" rx="84.208" ry="144.91"/>
<g>
	<path style="fill:#1C2042;" d="M240.37,50.25h6.176c5.118,0,9.265-4.147,9.265-9.265s-4.147-9.265-9.265-9.265h-6.176
		c-5.118,0-9.265,4.147-9.265,9.265S235.252,50.25,240.37,50.25z"/>
	<path style="fill:#1C2042;" d="M512,185.892c0-40.317-9.204-78.359-25.916-107.12c-17.632-30.342-41.621-47.051-67.552-47.051
		h-93.546c-5.118,0-9.265,4.147-9.265,9.265s4.147,9.265,9.265,9.265h48.624c-8.3,7.426-15.925,16.986-22.629,28.524
		c-16.712,28.761-25.916,66.803-25.916,107.12s9.204,78.359,25.916,107.121c6.704,11.537,14.329,21.097,22.629,28.524H93.468
		c-19.054,0-37.353-13.436-51.531-37.833c-15.096-25.979-23.408-60.717-23.408-97.814s8.312-71.833,23.408-97.811
		C56.115,63.686,74.414,50.25,93.468,50.25h100.786c5.118,0,9.265-4.147,9.265-9.265s-4.147-9.265-9.265-9.265H93.468
		c-25.93,0-49.92,16.71-67.552,47.053C9.204,107.534,0,145.577,0,185.892s9.204,78.359,25.916,107.121
		c15.036,25.875,34.696,41.826,56.238,45.966v132.034c0,3.701,2.202,7.047,5.602,8.51c1.18,0.508,2.425,0.755,3.66,0.755
		c2.326,0,4.616-0.875,6.372-2.537l32.553-30.814l43.189,31.566c3.062,2.24,7.183,2.384,10.397,0.364l52.623-33.071l54.463,33.142
		c2.983,1.816,6.738,1.8,9.707-0.047l52.96-32.931l47.901,32.714c3.278,2.241,7.624,2.139,10.801-0.252l42.343-31.918l42.344,31.918
		c2.807,2.114,6.567,2.461,9.709,0.893c3.145-1.568,5.131-4.778,5.131-8.291V192.15C511.96,190.07,512,187.986,512,185.892z
		 M367.003,283.705c-15.096-25.978-23.408-60.715-23.408-97.812s8.312-71.833,23.408-97.811
		c14.177-24.397,32.476-37.833,51.531-37.833s37.353,13.436,51.531,37.833c14.697,25.291,22.941,58.892,23.368,94.882
		c-0.032,0.313-0.048,0.63-0.048,0.95v8.35c-0.897,34.688-9.092,66.955-23.319,91.44c-14.177,24.397-32.477,37.833-51.531,37.833
		S381.179,308.101,367.003,283.705z M493.382,452.429l-33.079-24.935c-3.303-2.488-7.85-2.488-11.153,0l-42.609,32.118
		l-47.397-32.37c-3.033-2.073-6.999-2.154-10.116-0.217l-53.249,33.111l-54.489-33.158c-2.998-1.824-6.772-1.8-9.746,0.072
		l-52.152,32.775l-44.344-32.411c-3.612-2.64-8.588-2.321-11.836,0.751l-22.524,21.322v-109.42h317.849
		c25.93,0,49.92-16.71,67.552-47.053c2.629-4.524,5.047-9.3,7.298-14.255v173.67H493.382z"/>
	<path style="fill:#1C2042;" d="M419.838,117.678c-24.404,0-43.519,29.964-43.519,68.215s19.116,68.215,43.519,68.215
		c24.403,0,43.52-29.964,43.52-68.215S444.242,117.678,419.838,117.678z M419.838,235.579c-11.819,0-24.99-20.405-24.99-49.686
		s13.17-49.686,24.99-49.686c11.82,0,24.991,20.405,24.991,49.686S431.658,235.579,419.838,235.579z"/>
</g>
<g>
</g>
<g>
</g>
<g>
</g>
<g>
</g>
<g>
</g>
<g>
</g>
<g>
</g>
<g>
</g>
<g>
</g>
<g>
</g>
<g>
</g>
<g>
</g>
<g>
</g>
<g>
</g>
<g>
</g>
</svg>
